<mxfile host="app.diagrams.net" modified="2024-06-14T10:01:35.060Z" agent="Mozilla/5.0 (Windows NT 10.0; Win64; x64) AppleWebKit/537.36 (KHTML, like Gecko) Chrome/123.0.0.0 Safari/537.36 OPR/109.0.0.0" version="24.5.4" etag="aJoyggd8Onet_kFRcBoS" type="github">
  <diagram name="Page-1" id="H-8RXPdQpiQgv1XxFO0q">
    <mxGraphModel>
      <root>
        <mxCell id="0" />
        <mxCell id="1" parent="0" />
      </root>
    </mxGraphModel>
  </diagram>
</mxfile>
